<svg width="29" height="29" viewBox="0 0 29 29" fill="none" xmlns="http://www.w3.org/2000/svg">
<g filter="url(#filter0_d_3506_11249)">
<path d="M13.5 26.9287C20.8564 26.9287 26.9473 20.8379 26.9473 13.4814C26.9473 6.13818 20.8433 0.0341797 13.4868 0.0341797C6.14355 0.0341797 0.0527344 6.13818 0.0527344 13.4814C0.0527344 20.8379 6.15674 26.9287 13.5 26.9287ZM13.5396 5.83496C17.4155 5.83496 20.4741 8.43213 21.1465 12.2158H22.5044C23.1504 12.2158 23.269 12.8223 22.9263 13.3101L20.751 16.3687C20.3555 16.9092 19.7227 16.8696 19.3535 16.3687L17.1519 13.3101C16.8091 12.8223 16.9409 12.2158 17.5737 12.2158H19.0898C18.4834 9.80322 16.2422 7.98389 13.5396 7.98389C12.2212 7.98389 11.2456 8.40576 10.27 9.15723C9.72949 9.55273 9.09668 9.64502 8.63525 9.13086C8.16064 8.62988 8.30566 7.91797 8.96484 7.39062C10.1382 6.42822 11.8389 5.83496 13.5396 5.83496ZM13.5659 21.0752C9.68994 21.0752 6.61816 18.478 5.95898 14.6943H4.52197C3.87598 14.6943 3.75732 14.0879 4.1001 13.6001L6.27539 10.5283C6.6709 10.001 7.30371 10.0273 7.65967 10.5283L9.87451 13.6001C10.2173 14.0879 10.0854 14.6943 9.43945 14.6943H8.01562C8.62207 17.0938 10.8633 18.9131 13.5659 18.9131C14.8843 18.9131 15.8599 18.5044 16.8354 17.7529C17.376 17.3442 17.9956 17.2651 18.4702 17.7793C18.958 18.2803 18.7998 18.9922 18.1406 19.5063C16.9673 20.4819 15.2666 21.0752 13.5659 21.0752Z" fill="white"/>
</g>
<defs>
<filter id="filter0_d_3506_11249" x="0.0527344" y="0.0341797" width="28.8945" height="28.8945" filterUnits="userSpaceOnUse" color-interpolation-filters="sRGB">
<feFlood flood-opacity="0" result="BackgroundImageFix"/>
<feColorMatrix in="SourceAlpha" type="matrix" values="0 0 0 0 0 0 0 0 0 0 0 0 0 0 0 0 0 0 127 0" result="hardAlpha"/>
<feOffset dx="1" dy="1"/>
<feGaussianBlur stdDeviation="0.5"/>
<feComposite in2="hardAlpha" operator="out"/>
<feColorMatrix type="matrix" values="0 0 0 0 0 0 0 0 0 0 0 0 0 0 0 0 0 0 0.25 0"/>
<feBlend mode="normal" in2="BackgroundImageFix" result="effect1_dropShadow_3506_11249"/>
<feBlend mode="normal" in="SourceGraphic" in2="effect1_dropShadow_3506_11249" result="shape"/>
</filter>
</defs>
</svg>
