<svg width="25" height="24" viewBox="0 0 25 24" fill="none" xmlns="http://www.w3.org/2000/svg">
<rect x="0.5" width="24" height="24" rx="12" fill="#28B18F"/>
<path d="M7.97266 12.7695C7.97266 13.2617 8.37109 13.6602 8.86328 13.6602H12.1152V16.9121C12.1152 17.3984 12.5078 17.8027 13 17.8027C13.4922 17.8027 13.8906 17.3984 13.8906 16.9121V13.6602H17.1426C17.6289 13.6602 18.0273 13.2617 18.0273 12.7695C18.0273 12.2832 17.6289 11.8848 17.1426 11.8848H13.8906V8.63281C13.8906 8.14648 13.4922 7.74219 13 7.74219C12.5078 7.74219 12.1152 8.14648 12.1152 8.63281V11.8848H8.86328C8.37109 11.8848 7.97266 12.2832 7.97266 12.7695Z" fill="white"/>
</svg>
